<mxfile host="app.diagrams.net" modified="2021-04-09T06:07:35.542Z" agent="5.0 (Macintosh; Intel Mac OS X 10_15_7) AppleWebKit/537.36 (KHTML, like Gecko) Chrome/89.0.4389.114 Safari/537.36" etag="IbCJpKGlbd_g6P3K7Beo" version="14.5.8" type="github">
  <diagram id="5Q_dg1NMchVN03lZyIw9" name="Page-1">
    <mxGraphModel dx="919" dy="794" grid="1" gridSize="10" guides="1" tooltips="1" connect="1" arrows="1" fold="1" page="1" pageScale="1" pageWidth="850" pageHeight="1100" math="0" shadow="0">
      <root>
        <mxCell id="0" />
        <mxCell id="1" parent="0" />
        <mxCell id="hCv59OU6eYEf9Tw23_Wt-66" value="" style="whiteSpace=wrap;html=1;aspect=fixed;" parent="1" vertex="1">
          <mxGeometry x="160" y="920" width="80" height="80" as="geometry" />
        </mxCell>
        <mxCell id="hCv59OU6eYEf9Tw23_Wt-61" value="" style="whiteSpace=wrap;html=1;aspect=fixed;" parent="1" vertex="1">
          <mxGeometry x="190" y="190" width="80" height="80" as="geometry" />
        </mxCell>
        <mxCell id="hCv59OU6eYEf9Tw23_Wt-60" value="" style="whiteSpace=wrap;html=1;aspect=fixed;" parent="1" vertex="1">
          <mxGeometry x="190" y="470" width="80" height="80" as="geometry" />
        </mxCell>
        <mxCell id="hCv59OU6eYEf9Tw23_Wt-33" value="&lt;b&gt;Issues:&lt;/b&gt;&lt;br&gt;&lt;span&gt;a) Network / DB Calls&lt;/span&gt;&lt;br&gt;&lt;span&gt;b) Recomputation&lt;/span&gt;&lt;br&gt;&lt;span&gt;c) Reduce DB load&lt;/span&gt;" style="rounded=0;whiteSpace=wrap;html=1;align=left;" parent="1" vertex="1">
          <mxGeometry x="570" y="110" width="250" height="100" as="geometry" />
        </mxCell>
        <mxCell id="hCv59OU6eYEf9Tw23_Wt-2" value="" style="rounded=1;whiteSpace=wrap;html=1;" parent="1" vertex="1">
          <mxGeometry x="330" y="15" width="270" height="60" as="geometry" />
        </mxCell>
        <mxCell id="hCv59OU6eYEf9Tw23_Wt-1" value="&lt;h1&gt;Distributed Caching&lt;/h1&gt;" style="text;html=1;strokeColor=none;fillColor=none;align=center;verticalAlign=middle;whiteSpace=wrap;rounded=0;" parent="1" vertex="1">
          <mxGeometry x="320" y="30" width="300" height="30" as="geometry" />
        </mxCell>
        <mxCell id="hCv59OU6eYEf9Tw23_Wt-31" style="edgeStyle=orthogonalEdgeStyle;rounded=0;orthogonalLoop=1;jettySize=auto;html=1;entryX=1;entryY=0.5;entryDx=0;entryDy=0;" parent="1" source="hCv59OU6eYEf9Tw23_Wt-3" target="hCv59OU6eYEf9Tw23_Wt-6" edge="1">
          <mxGeometry relative="1" as="geometry" />
        </mxCell>
        <mxCell id="hCv59OU6eYEf9Tw23_Wt-3" value="Database" style="shape=cylinder3;whiteSpace=wrap;html=1;boundedLbl=1;backgroundOutline=1;size=15;" parent="1" vertex="1">
          <mxGeometry x="470" y="200.01" width="60" height="80" as="geometry" />
        </mxCell>
        <mxCell id="hCv59OU6eYEf9Tw23_Wt-7" style="edgeStyle=orthogonalEdgeStyle;rounded=0;orthogonalLoop=1;jettySize=auto;html=1;exitX=1;exitY=0.3333333333333333;exitDx=0;exitDy=0;exitPerimeter=0;" parent="1" source="hCv59OU6eYEf9Tw23_Wt-4" target="hCv59OU6eYEf9Tw23_Wt-6" edge="1">
          <mxGeometry relative="1" as="geometry" />
        </mxCell>
        <mxCell id="hCv59OU6eYEf9Tw23_Wt-4" value="User&lt;br&gt;" style="shape=umlActor;verticalLabelPosition=bottom;verticalAlign=top;html=1;" parent="1" vertex="1">
          <mxGeometry x="90" y="140" width="30" height="60" as="geometry" />
        </mxCell>
        <mxCell id="hCv59OU6eYEf9Tw23_Wt-8" style="edgeStyle=orthogonalEdgeStyle;rounded=0;orthogonalLoop=1;jettySize=auto;html=1;" parent="1" source="hCv59OU6eYEf9Tw23_Wt-5" edge="1">
          <mxGeometry relative="1" as="geometry">
            <mxPoint x="200" y="240" as="targetPoint" />
            <Array as="points">
              <mxPoint x="160" y="330" />
              <mxPoint x="160" y="240" />
            </Array>
          </mxGeometry>
        </mxCell>
        <mxCell id="hCv59OU6eYEf9Tw23_Wt-5" value="User" style="shape=umlActor;verticalLabelPosition=bottom;verticalAlign=top;html=1;outlineConnect=0;" parent="1" vertex="1">
          <mxGeometry x="90" y="300" width="30" height="60" as="geometry" />
        </mxCell>
        <mxCell id="hCv59OU6eYEf9Tw23_Wt-11" style="edgeStyle=orthogonalEdgeStyle;rounded=0;orthogonalLoop=1;jettySize=auto;html=1;" parent="1" source="hCv59OU6eYEf9Tw23_Wt-6" edge="1">
          <mxGeometry relative="1" as="geometry">
            <mxPoint x="470" y="240" as="targetPoint" />
          </mxGeometry>
        </mxCell>
        <mxCell id="hCv59OU6eYEf9Tw23_Wt-30" style="edgeStyle=orthogonalEdgeStyle;rounded=0;orthogonalLoop=1;jettySize=auto;html=1;" parent="1" source="hCv59OU6eYEf9Tw23_Wt-6" edge="1">
          <mxGeometry relative="1" as="geometry">
            <mxPoint x="160" y="220" as="targetPoint" />
          </mxGeometry>
        </mxCell>
        <mxCell id="hCv59OU6eYEf9Tw23_Wt-6" value="Server" style="whiteSpace=wrap;html=1;aspect=fixed;" parent="1" vertex="1">
          <mxGeometry x="200" y="200" width="80" height="80" as="geometry" />
        </mxCell>
        <mxCell id="hCv59OU6eYEf9Tw23_Wt-13" value="cache at server side ??" style="rounded=1;whiteSpace=wrap;html=1;" parent="1" vertex="1">
          <mxGeometry x="280" y="300" width="80" height="30" as="geometry" />
        </mxCell>
        <mxCell id="hCv59OU6eYEf9Tw23_Wt-14" value="cache at DB side ??" style="rounded=1;whiteSpace=wrap;html=1;" parent="1" vertex="1">
          <mxGeometry x="530" y="300" width="80" height="30" as="geometry" />
        </mxCell>
        <mxCell id="hCv59OU6eYEf9Tw23_Wt-94" style="edgeStyle=orthogonalEdgeStyle;rounded=0;orthogonalLoop=1;jettySize=auto;html=1;entryX=0.5;entryY=1;entryDx=0;entryDy=0;exitX=0.5;exitY=1;exitDx=0;exitDy=0;exitPerimeter=0;" parent="1" source="hCv59OU6eYEf9Tw23_Wt-15" target="hCv59OU6eYEf9Tw23_Wt-48" edge="1">
          <mxGeometry relative="1" as="geometry" />
        </mxCell>
        <mxCell id="hCv59OU6eYEf9Tw23_Wt-15" value="Database" style="shape=cylinder3;whiteSpace=wrap;html=1;boundedLbl=1;backgroundOutline=1;size=15;" parent="1" vertex="1">
          <mxGeometry x="480" y="480" width="60" height="80" as="geometry" />
        </mxCell>
        <mxCell id="hCv59OU6eYEf9Tw23_Wt-49" style="edgeStyle=orthogonalEdgeStyle;rounded=0;orthogonalLoop=1;jettySize=auto;html=1;entryX=0.5;entryY=0;entryDx=0;entryDy=0;" parent="1" source="hCv59OU6eYEf9Tw23_Wt-21" target="hCv59OU6eYEf9Tw23_Wt-48" edge="1">
          <mxGeometry relative="1" as="geometry" />
        </mxCell>
        <mxCell id="hCv59OU6eYEf9Tw23_Wt-86" style="edgeStyle=orthogonalEdgeStyle;rounded=0;orthogonalLoop=1;jettySize=auto;html=1;" parent="1" source="hCv59OU6eYEf9Tw23_Wt-21" edge="1">
          <mxGeometry relative="1" as="geometry">
            <mxPoint x="170" y="500" as="targetPoint" />
          </mxGeometry>
        </mxCell>
        <mxCell id="hCv59OU6eYEf9Tw23_Wt-21" value="Server" style="whiteSpace=wrap;html=1;aspect=fixed;" parent="1" vertex="1">
          <mxGeometry x="200" y="480" width="80" height="80" as="geometry" />
        </mxCell>
        <mxCell id="hCv59OU6eYEf9Tw23_Wt-34" style="edgeStyle=orthogonalEdgeStyle;rounded=0;orthogonalLoop=1;jettySize=auto;html=1;entryX=1.038;entryY=0.375;entryDx=0;entryDy=0;entryPerimeter=0;" parent="1" source="hCv59OU6eYEf9Tw23_Wt-35" target="hCv59OU6eYEf9Tw23_Wt-45" edge="1">
          <mxGeometry relative="1" as="geometry">
            <Array as="points">
              <mxPoint x="420" y="970" />
              <mxPoint x="420" y="1030" />
            </Array>
          </mxGeometry>
        </mxCell>
        <mxCell id="hCv59OU6eYEf9Tw23_Wt-35" value="Database" style="shape=cylinder3;whiteSpace=wrap;html=1;boundedLbl=1;backgroundOutline=1;size=15;" parent="1" vertex="1">
          <mxGeometry x="450" y="930" width="60" height="80" as="geometry" />
        </mxCell>
        <mxCell id="hCv59OU6eYEf9Tw23_Wt-37" value="User" style="shape=umlActor;verticalLabelPosition=bottom;verticalAlign=top;html=1;" parent="1" vertex="1">
          <mxGeometry x="70" y="1040" width="30" height="60" as="geometry" />
        </mxCell>
        <mxCell id="hCv59OU6eYEf9Tw23_Wt-38" style="edgeStyle=orthogonalEdgeStyle;rounded=0;orthogonalLoop=1;jettySize=auto;html=1;" parent="1" edge="1">
          <mxGeometry relative="1" as="geometry">
            <mxPoint x="170" y="970" as="targetPoint" />
            <Array as="points">
              <mxPoint x="130" y="1060" />
              <mxPoint x="130" y="970" />
            </Array>
            <mxPoint x="90" y="1060" as="sourcePoint" />
          </mxGeometry>
        </mxCell>
        <mxCell id="hCv59OU6eYEf9Tw23_Wt-40" style="edgeStyle=orthogonalEdgeStyle;rounded=0;orthogonalLoop=1;jettySize=auto;html=1;entryX=0;entryY=0.5;entryDx=0;entryDy=0;" parent="1" source="hCv59OU6eYEf9Tw23_Wt-42" target="hCv59OU6eYEf9Tw23_Wt-45" edge="1">
          <mxGeometry relative="1" as="geometry" />
        </mxCell>
        <mxCell id="hCv59OU6eYEf9Tw23_Wt-74" style="edgeStyle=orthogonalEdgeStyle;rounded=0;orthogonalLoop=1;jettySize=auto;html=1;" parent="1" source="hCv59OU6eYEf9Tw23_Wt-42" edge="1">
          <mxGeometry relative="1" as="geometry">
            <mxPoint x="130" y="940" as="targetPoint" />
          </mxGeometry>
        </mxCell>
        <mxCell id="hCv59OU6eYEf9Tw23_Wt-42" value="Server" style="whiteSpace=wrap;html=1;aspect=fixed;" parent="1" vertex="1">
          <mxGeometry x="170" y="930" width="80" height="80" as="geometry" />
        </mxCell>
        <mxCell id="hCv59OU6eYEf9Tw23_Wt-43" style="edgeStyle=orthogonalEdgeStyle;rounded=0;orthogonalLoop=1;jettySize=auto;html=1;entryX=0;entryY=0.5;entryDx=0;entryDy=0;entryPerimeter=0;" parent="1" source="hCv59OU6eYEf9Tw23_Wt-45" target="hCv59OU6eYEf9Tw23_Wt-35" edge="1">
          <mxGeometry relative="1" as="geometry" />
        </mxCell>
        <mxCell id="hCv59OU6eYEf9Tw23_Wt-44" style="edgeStyle=orthogonalEdgeStyle;rounded=0;orthogonalLoop=1;jettySize=auto;html=1;entryX=1;entryY=0.75;entryDx=0;entryDy=0;" parent="1" source="hCv59OU6eYEf9Tw23_Wt-45" target="hCv59OU6eYEf9Tw23_Wt-42" edge="1">
          <mxGeometry relative="1" as="geometry" />
        </mxCell>
        <mxCell id="hCv59OU6eYEf9Tw23_Wt-45" value="Global Cache" style="whiteSpace=wrap;html=1;aspect=fixed;" parent="1" vertex="1">
          <mxGeometry x="310" y="1000" width="80" height="80" as="geometry" />
        </mxCell>
        <mxCell id="hCv59OU6eYEf9Tw23_Wt-46" value="Redis / Distributed Cache" style="rounded=1;whiteSpace=wrap;html=1;" parent="1" vertex="1">
          <mxGeometry x="310" y="1100" width="90" height="60" as="geometry" />
        </mxCell>
        <mxCell id="hCv59OU6eYEf9Tw23_Wt-47" value="&lt;b&gt;Cache Policy:&amp;nbsp;&lt;/b&gt;Loading and Eviction of data to and from cache.&amp;nbsp;&lt;br&gt;&lt;br&gt;a) Least Recently Used: Keep only recent one and kick off the previous ones.&lt;br&gt;&lt;br&gt;Sliding Window Cache Policies (Caffeine) better than LRU.&lt;br&gt;&lt;br&gt;&lt;b&gt;Advantage of Distributed Cache:&lt;br&gt;&lt;/b&gt;&lt;br&gt;It&#39;s running on its own server and infrastructure and can scale on distributed environment." style="whiteSpace=wrap;html=1;aspect=fixed;align=left;" parent="1" vertex="1">
          <mxGeometry x="560" y="880" width="230" height="230" as="geometry" />
        </mxCell>
        <mxCell id="hCv59OU6eYEf9Tw23_Wt-50" style="edgeStyle=orthogonalEdgeStyle;rounded=0;orthogonalLoop=1;jettySize=auto;html=1;entryX=0.5;entryY=1;entryDx=0;entryDy=0;" parent="1" source="hCv59OU6eYEf9Tw23_Wt-48" target="hCv59OU6eYEf9Tw23_Wt-21" edge="1">
          <mxGeometry relative="1" as="geometry" />
        </mxCell>
        <mxCell id="hCv59OU6eYEf9Tw23_Wt-91" style="edgeStyle=orthogonalEdgeStyle;rounded=0;orthogonalLoop=1;jettySize=auto;html=1;entryX=0;entryY=0.5;entryDx=0;entryDy=0;entryPerimeter=0;" parent="1" source="hCv59OU6eYEf9Tw23_Wt-48" target="hCv59OU6eYEf9Tw23_Wt-15" edge="1">
          <mxGeometry relative="1" as="geometry">
            <Array as="points">
              <mxPoint x="460" y="605" />
              <mxPoint x="460" y="520" />
            </Array>
          </mxGeometry>
        </mxCell>
        <mxCell id="hCv59OU6eYEf9Tw23_Wt-48" value="Placing Cache at server side. In memory Cache (for very small amount of data)" style="rounded=1;whiteSpace=wrap;html=1;" parent="1" vertex="1">
          <mxGeometry x="290" y="570" width="160" height="70" as="geometry" />
        </mxCell>
        <mxCell id="hCv59OU6eYEf9Tw23_Wt-54" value="&lt;b&gt;Advantage of placing cache at server side:&lt;br&gt;&lt;br&gt;&lt;/b&gt;a) Avoiding DB Calls&lt;br&gt;b) Recomputation logic is cached&lt;br&gt;&lt;br&gt;&lt;b&gt;Disadvantage:&lt;br&gt;&lt;/b&gt;&lt;br&gt;Not everything could be cached at server side. As it uses SSD storage which is costlier than DB infrastructure.&amp;nbsp;&lt;br&gt;&lt;br&gt;Also piling all the info at cache side increases the search time (turn around time)&amp;nbsp; and forces us to query from DB instead. (Counter productive)&lt;br&gt;&lt;br&gt;&lt;b&gt;Thrashing:&lt;/b&gt; Data eviction from cache very frequently, sometimes not using the cache data at all.&lt;br&gt;&lt;br&gt;If server goes down, cache also goes away. Managing cache is more important.&lt;br&gt;&lt;br&gt;&lt;b&gt;Consistency:&lt;/b&gt; Cache consistency while updating data into database." style="rounded=0;whiteSpace=wrap;html=1;align=left;" parent="1" vertex="1">
          <mxGeometry x="579.47" y="410" width="230.53" height="420" as="geometry" />
        </mxCell>
        <mxCell id="hCv59OU6eYEf9Tw23_Wt-55" value="" style="endArrow=none;html=1;" parent="1" edge="1">
          <mxGeometry width="50" height="50" relative="1" as="geometry">
            <mxPoint x="60" y="400" as="sourcePoint" />
            <mxPoint x="810" y="400" as="targetPoint" />
          </mxGeometry>
        </mxCell>
        <mxCell id="hCv59OU6eYEf9Tw23_Wt-56" value="" style="endArrow=none;html=1;" parent="1" edge="1">
          <mxGeometry width="50" height="50" relative="1" as="geometry">
            <mxPoint x="30" y="850" as="sourcePoint" />
            <mxPoint x="780" y="850" as="targetPoint" />
          </mxGeometry>
        </mxCell>
        <mxCell id="hCv59OU6eYEf9Tw23_Wt-62" value="Server Cluster" style="text;html=1;strokeColor=none;fillColor=none;align=center;verticalAlign=middle;whiteSpace=wrap;rounded=0;" parent="1" vertex="1">
          <mxGeometry x="210" y="160" width="60" height="20" as="geometry" />
        </mxCell>
        <mxCell id="hCv59OU6eYEf9Tw23_Wt-63" value="Server Cluster" style="text;html=1;strokeColor=none;fillColor=none;align=center;verticalAlign=middle;whiteSpace=wrap;rounded=0;" parent="1" vertex="1">
          <mxGeometry x="200" y="440" width="60" height="20" as="geometry" />
        </mxCell>
        <mxCell id="hCv59OU6eYEf9Tw23_Wt-64" value="Server Cluster" style="text;html=1;strokeColor=none;fillColor=none;align=center;verticalAlign=middle;whiteSpace=wrap;rounded=0;" parent="1" vertex="1">
          <mxGeometry x="170" y="890" width="60" height="20" as="geometry" />
        </mxCell>
        <mxCell id="hCv59OU6eYEf9Tw23_Wt-67" style="edgeStyle=orthogonalEdgeStyle;rounded=0;orthogonalLoop=1;jettySize=auto;html=1;exitX=0.5;exitY=1;exitDx=0;exitDy=0;" parent="1" source="hCv59OU6eYEf9Tw23_Wt-64" target="hCv59OU6eYEf9Tw23_Wt-64" edge="1">
          <mxGeometry relative="1" as="geometry" />
        </mxCell>
        <mxCell id="hCv59OU6eYEf9Tw23_Wt-73" style="edgeStyle=orthogonalEdgeStyle;rounded=0;orthogonalLoop=1;jettySize=auto;html=1;entryX=0;entryY=0.5;entryDx=0;entryDy=0;" parent="1" source="hCv59OU6eYEf9Tw23_Wt-70" target="hCv59OU6eYEf9Tw23_Wt-42" edge="1">
          <mxGeometry relative="1" as="geometry">
            <Array as="points">
              <mxPoint x="130" y="900" />
              <mxPoint x="130" y="970" />
            </Array>
          </mxGeometry>
        </mxCell>
        <mxCell id="hCv59OU6eYEf9Tw23_Wt-70" value="User" style="shape=umlActor;verticalLabelPosition=bottom;verticalAlign=top;html=1;" parent="1" vertex="1">
          <mxGeometry x="70" y="880" width="30" height="60" as="geometry" />
        </mxCell>
        <mxCell id="hCv59OU6eYEf9Tw23_Wt-84" style="edgeStyle=orthogonalEdgeStyle;rounded=0;orthogonalLoop=1;jettySize=auto;html=1;entryX=0;entryY=0.5;entryDx=0;entryDy=0;" parent="1" source="hCv59OU6eYEf9Tw23_Wt-76" target="hCv59OU6eYEf9Tw23_Wt-21" edge="1">
          <mxGeometry relative="1" as="geometry">
            <Array as="points">
              <mxPoint x="170" y="610" />
              <mxPoint x="170" y="520" />
            </Array>
          </mxGeometry>
        </mxCell>
        <mxCell id="hCv59OU6eYEf9Tw23_Wt-76" value="User" style="shape=umlActor;verticalLabelPosition=bottom;verticalAlign=top;html=1;" parent="1" vertex="1">
          <mxGeometry x="110" y="590" width="30" height="60" as="geometry" />
        </mxCell>
        <mxCell id="hCv59OU6eYEf9Tw23_Wt-82" value="" style="edgeStyle=orthogonalEdgeStyle;rounded=0;orthogonalLoop=1;jettySize=auto;html=1;entryX=0;entryY=0.5;entryDx=0;entryDy=0;" parent="1" source="hCv59OU6eYEf9Tw23_Wt-79" target="hCv59OU6eYEf9Tw23_Wt-21" edge="1">
          <mxGeometry relative="1" as="geometry">
            <Array as="points">
              <mxPoint x="170" y="450" />
              <mxPoint x="170" y="520" />
            </Array>
          </mxGeometry>
        </mxCell>
        <mxCell id="hCv59OU6eYEf9Tw23_Wt-79" value="User" style="shape=umlActor;verticalLabelPosition=bottom;verticalAlign=top;html=1;" parent="1" vertex="1">
          <mxGeometry x="110" y="430" width="30" height="60" as="geometry" />
        </mxCell>
        <mxCell id="hCv59OU6eYEf9Tw23_Wt-100" value="a) Write-through cache: Write data to cache first and then to DB&lt;br&gt;b) Write - back cache: Write data to DB and then to Cache / Delete the cache first and then update DB and then add entry to cache.&amp;nbsp;" style="rounded=0;whiteSpace=wrap;html=1;align=left;" parent="1" vertex="1">
          <mxGeometry x="560" y="1130" width="240" height="150" as="geometry" />
        </mxCell>
        <mxCell id="hCv59OU6eYEf9Tw23_Wt-101" value="Best way to implement cache is to take hybrid policy and utilize both write-through and write-back cache approach. Sometimes we can trade-off for consistency and put everything into cache and after few seconds we can make bulk update to Database. If consistency couldn&#39;t be compromised then we would certainly go for write-back approach." style="rounded=0;whiteSpace=wrap;html=1;align=left;" parent="1" vertex="1">
          <mxGeometry x="70" y="1220" width="480" height="60" as="geometry" />
        </mxCell>
      </root>
    </mxGraphModel>
  </diagram>
</mxfile>
